<?xml version="1.0" encoding="utf-8"?>
<!-- Generator: Adobe Illustrator 28.1.0, SVG Export Plug-In . SVG Version: 6.00 Build 0)  -->
<svg version="1.1" id="Layer_1" xmlns="http://www.w3.org/2000/svg" xmlns:xlink="http://www.w3.org/1999/xlink" x="0px" y="0px"
	 viewBox="0 0 199.3 38.7" style="enable-background:new 0 0 199.3 38.7;" xml:space="preserve">
<style type="text/css">
	.st0{fill-rule:evenodd;clip-rule:evenodd;fill:#005941;}
	.st1{fill:#FFFFFF;}
	.st2{fill-rule:evenodd;clip-rule:evenodd;fill:#FFFFFF;}
</style>
<g id="Layer_2_00000029727760567081449750000009599350185798128535_">
	<g id="Layer_1-2">
		<polygon class="st0" points="27.3,7.4 173.7,7.4 174.4,7.4 175.1,7.4 175.8,7.5 176.5,7.6 177.1,7.8 177.7,7.9 178.4,8.1 179,8.3 
			179.6,8.6 180.1,8.8 180.7,9.1 181.2,9.5 181.7,9.8 182.2,10.2 182.6,10.6 183,11 183.4,11.5 183.8,12 184.1,12.5 184.4,13 
			184.7,13.5 184.9,14.1 185.1,14.7 185.2,15.3 185.3,15.9 185.4,16.5 185.4,17.1 185.4,17.7 185.3,18.4 185.2,19 185.1,19.6 
			184.9,20.2 184.7,20.9 184.5,21.5 184.2,22.1 183.9,22.7 183.5,23.3 183.2,23.9 182.8,24.4 182.4,24.9 181.9,25.5 181.4,25.9 
			181,26.4 180.5,26.9 179.9,27.3 179.4,27.8 178.8,28.2 178.3,28.5 177.7,28.9 177.1,29.3 176.5,29.6 175.8,29.9 175.2,30.2 
			174.5,30.5 173.9,30.7 173.2,30.9 172.5,31.1 171.9,31.3 171.2,31.4 170.5,31.6 169.7,31.7 169.1,31.7 168.3,31.8 167.6,31.8 
			21.3,31.8 20.6,31.8 19.9,31.7 19.2,31.7 18.5,31.6 17.9,31.4 17.3,31.3 16.6,31.1 16,30.9 15.4,30.6 14.9,30.4 14.3,30.1 
			13.8,29.7 13.3,29.4 12.9,29 12.4,28.6 12,28.1 11.6,27.7 11.3,27.2 10.9,26.7 10.6,26.2 10.4,25.6 10.2,25 10,24.5 9.8,23.9 
			9.7,23.3 9.7,22.7 9.7,22 9.7,21.4 9.7,20.8 9.8,20.1 10,19.5 10.2,18.8 10.4,18.2 10.6,17.6 10.9,17 11.2,16.4 11.5,15.8 
			11.9,15.3 12.3,14.7 12.7,14.2 13.1,13.7 13.6,13.2 14.1,12.7 14.6,12.3 15.1,11.8 15.6,11.4 16.2,11 16.8,10.6 17.4,10.3 
			17.9,9.9 18.6,9.6 19.2,9.3 19.8,9 20.5,8.7 21.1,8.5 21.8,8.3 22.5,8.1 23.2,7.9 23.8,7.8 24.5,7.6 25.3,7.5 26,7.4 26.7,7.4 
			27.3,7.4 		"/>
		<path class="st1" d="M27.4,9.1h146.3c1.3,0,2.7,0.2,3.9,0.6c1.7,0.5,3.3,1.5,4.4,2.8c1.1,1.3,1.7,3,1.7,4.7c0,0.9-0.1,1.8-0.4,2.6
			l0,0c-0.2,0.8-0.6,1.6-1,2.4c-0.5,0.8-1,1.5-1.7,2.2c-3.4,3.6-8.1,5.7-13.1,5.8H21.3c-1.3,0-2.6-0.2-3.9-0.5
			c-1.7-0.5-3.3-1.5-4.4-2.9c-1.1-1.3-1.7-3-1.6-4.7l0,0c0-0.9,0.1-1.8,0.4-2.7l0,0c0.3-0.8,0.6-1.6,1.1-2.4c0.5-0.8,1-1.5,1.6-2.1
			C17.7,11.2,22.4,9.1,27.4,9.1L27.4,9.1z M173.7,10.6H27.4c-4.5,0.1-8.8,2-11.9,5.3c-0.5,0.6-1,1.2-1.4,1.9c-0.4,0.6-0.7,1.3-0.9,2
			l0,0c-0.2,0.7-0.3,1.5-0.4,2.2l0,0c0,1.4,0.5,2.7,1.3,3.8c1,1.1,2.3,2,3.7,2.4c1.1,0.3,2.3,0.5,3.5,0.5h146.3
			c4.6-0.1,8.9-2,12-5.3c0.5-0.6,1-1.2,1.4-1.9c0.4-0.6,0.7-1.3,0.9-2.1l0,0c0.2-0.7,0.3-1.4,0.4-2.2c0-1.4-0.4-2.7-1.3-3.8
			c-1-1.1-2.3-2-3.7-2.4C176.1,10.7,174.9,10.5,173.7,10.6L173.7,10.6z"/>
		<path class="st2" d="M151,19.2c0.3,0,0.7,0,1,0c1.9,0.1,3.7-0.3,5.3-1.2c1-0.6,1.6-1.7,1.7-2.8c0-1.3-1.6-1.7-3.5-1.7
			c-0.8,0-1.5,0-2.3,0L151,19.2L151,19.2z M141.2,26.8l6.2-14.4h11.7c1.2-0.1,2.5,0,3.6,0.2c2.1,0.6,2.8,1.1,2.9,2.4
			c0,1.9-1.1,3.5-3.5,4.4c-1.5,0.3-3,0.5-4.5,0.6l6.2,6.9h-7.9l-4.4-6.5h-1.2l-2,6.5L141.2,26.8z"/>
		<path class="st2" d="M110.7,26.8l17.8-14.4h3.2l5.7,14.5h-6.6l-1.5-4.4h-10l-4.6,4.4L110.7,26.8z M128.9,21.1l-1.7-4.9l-6,4.9
			H128.9z"/>
		<path class="st2" d="M44.7,26.8l17.8-14.4h3.1l5.7,14.5h-6.6l-1.5-4.4h-10l-4.6,4.4L44.7,26.8z M62.9,21.1l-1.7-4.8l-6,4.9
			L62.9,21.1z"/>
		<polygon class="st2" points="73.6,26.8 83.4,12.4 87.2,12.4 93.1,22.3 105.4,12.4 110.8,12.4 108.4,26.8 101.5,26.8 103.7,17 
			91.3,26.8 88.6,26.8 83.3,17.6 77.8,26.8 73.6,26.8 		"/>
		<polygon class="st2" points="26,26.8 31.6,12.2 38.5,12.2 33.2,25 43.1,25 42.2,26.8 26,26.8 		"/>
	</g>
</g>
</svg>
