<?xml version="1.0" encoding="utf-8"?>
<!-- Generator: Adobe Illustrator 28.1.0, SVG Export Plug-In . SVG Version: 6.00 Build 0)  -->
<svg version="1.1" id="Layer_1" xmlns="http://www.w3.org/2000/svg" xmlns:xlink="http://www.w3.org/1999/xlink" x="0px" y="0px"
	 viewBox="0 0 245.51 373" style="enable-background:new 0 0 245.51 373;" xml:space="preserve">
<style type="text/css">
	.st0{fill:#0198CB;}
</style>
<g id="Layer_2_00000171695616949686065340000016249874059669956249_">
	<g id="Layer_1-2">
		<path class="st0" d="M1.64,227.66C3.17,225,78.17,98.51,86.44,85s31.74-15.66,31.74,7.83v141.79c0,9.24-4.78,23.48-23.76,23.48
			c-14.94,0-19.73-13.27-19.72-20c0,0-0.06-31.31-0.06-42.18c0-10.87-12.12-10.88-12.12,0.43v41.75c0,17-14.46,20-32.61,20
			C4,258.1-3.8,237.06,1.64,227.66z"/>
		<path class="st0" d="M129.92,90.46v88.39c0,9.46,4.24,12.39,14.35,12.39h35.88c10.43,0,10.76,10.76,0,10.76H153.4
			c-8.15,0-23.48,8.48-23.48,27.73s10.44,28.37,22.83,28.37h71.43c13,0,27.07-19.24,18.91-33.92s-27.39-46.12-34.57-57.63
			s-9.78-8.25-17-8.25s-15.65,0.33-23.48,0.33s-8.48-12.07-0.33-12.07s10.11-0.33,13.38-0.33s12.52-8.15,6.58-17.28
			c-5.94-9.13-18-26.84-25.5-38.49C158.05,84,154.71,75,145.25,75C133.18,75,129.92,82.89,129.92,90.46z"/>
		<path class="st0" d="M14.82,267.08h4l2.8,14h-3.46l-0.66-3.8h-7.09l-2.79,3.8H4.13L14.82,267.08z M11.71,275.5h5.5l-1-6.16h-0.05
			L11.71,275.5z"/>
		<path class="st0" d="M27.62,267.08h6c3.72,0,6.09,0.94,5.32,3.68c-0.62,2.22-2.7,2.91-4.83,3.25l0,0c2.63,0.43,2.6,1.63,2.65,3.11
			l0.09,4h-3.4l-0.07-3c-0.06-2.24-0.25-3-3.31-3h-1.35l-1.68,6h-3.35L27.62,267.08z M29.19,273.4h1.32c2.09,0,4.35-0.3,4.93-2.37
			c0.41-1.47-0.42-2.26-2.32-2.26h-2.63L29.19,273.4z"/>
		<path class="st0" d="M41,267.08h3.49l2,11.28h0.06l8.4-11.28h3.49l-10.71,14h-4L41,267.08z"/>
		<path class="st0" d="M59.94,267.08h3.35l-3.93,14H56L59.94,267.08z"/>
		<path class="st0" d="M67.45,267.08h4.12l4.72,10.33l0,0l2.9-10.33h3.11l-3.93,14h-3.75l-5-10.84h-0.06l-3,10.84h-3.04
			L67.45,267.08z"/>
		<path class="st0" d="M104.83,269.44c-1.51-0.54-3.1-0.85-4.7-0.89c-1.66,0-3.12,0.53-3.46,1.72c-0.69,2.48,8.62,2.85,7.44,7.08
			c-0.74,2.62-4.1,4-8.39,4c-1.78-0.03-3.56-0.22-5.3-0.59l0.69-2.46c1.59,0.88,3.38,1.35,5.2,1.37c2.63,0,3.76-1,4-2
			c0.85-3.05-8.51-3.23-7.4-7.21c0.7-2.5,4.08-3.62,7.8-3.62c1.58,0.02,3.16,0.14,4.73,0.38L104.83,269.44z"/>
		<path class="st0" d="M114.51,267.08h4l2.8,14h-3.49l-0.66-3.8h-7.09l-2.78,3.8h-3.49L114.51,267.08z M111.41,275.5h5.5l-1-6.16
			l0,0L111.41,275.5z"/>
		<path class="st0" d="M127.37,267.08h4.12l4.72,10.33h0.06l2.89-10.33h3.06l-3.92,14h-3.75l-5-10.84h-0.06l-3,10.84h-3.06
			L127.37,267.08z"/>
		<path class="st0" d="M156.63,280.05c-2.08,0.86-4.32,1.29-6.57,1.28c-5.89,0-7.53-3.13-6.37-7.25c1.25-4.5,4.19-7.22,9.83-7.22
			c4.61,0,6.13,1.63,5.48,3.92h-3.72c0.28-1-0.09-2.23-2.24-2.23c-3.4,0-4.85,2.6-5.67,5.53c-0.71,2.56-0.84,5.57,3.16,5.57
			c1.03,0.06,2.06-0.13,3-0.56l1.25-4.47h-3.72l0.48-1.68h7.07L156.63,280.05z"/>
		<path class="st0" d="M161.17,274.09c1.15-4.08,3.83-7.23,10-7.23s7.11,3.15,6,7.23s-3.86,7.24-10,7.24S160,278.18,161.17,274.09z
			 M167.6,279.65c3.38,0,5-2.57,5.85-5.56s0.64-5.54-2.74-5.54s-5,2.56-5.84,5.54S164.2,279.65,167.6,279.65L167.6,279.65z"/>
		<path class="st0" d="M178.35,278.32h3.58l-2.7,4.82h-2.74L178.35,278.32z"/>
		<path class="st0" d="M196.75,267.08h3.35l-3.92,14h-3.35L196.75,267.08z"/>
		<path class="st0" d="M204.26,267.08h4.11l4.73,10.33h0.06l2.89-10.33h3l-3.92,14h-3.74l-5-10.84l0,0l-3,10.84h-3.06L204.26,267.08
			z"/>
		<path class="st0" d="M232.44,280.52c-1.82,0.51-3.71,0.78-5.6,0.81c-5.76,0-7.49-2.93-6.26-7.3c1.15-4.12,4.16-7.17,9.79-7.17
			c4.58,0,6.11,1.89,5.5,4.06h-3.72c0.31-1.09,0.32-2.37-2.25-2.37c-3.47,0-4.91,2.92-5.53,5.12c-0.94,3.35-0.28,5.79,3.76,5.79
			c1.68-0.04,3.34-0.38,4.9-1L232.44,280.52z"/>
		<path class="st0" d="M235.5,278.32h3.92l-0.78,2.79h-3.92L235.5,278.32z"/>
	</g>
</g>
</svg>
